<?xml version="1.0" encoding="utf-8"?>
<!-- Generator: Adobe Illustrator 22.1.0, SVG Export Plug-In . SVG Version: 6.00 Build 0)  -->
<svg version="1.1" id="Layer_1" xmlns="http://www.w3.org/2000/svg" xmlns:xlink="http://www.w3.org/1999/xlink" x="0px" y="0px"
	 viewBox="0 0 66.5 66.6" style="enable-background:new 0 0 66.5 66.6;" xml:space="preserve">
<g>
	<g>
		<path d="M48.2,38.1l-0.4-0.6l-2.3-4.1C42,27.2,38.6,21,35.1,14.7c-0.4-0.7-1-1.1-1.8-1.1s-1.4,0.4-1.8,1.1
			c-1.6,2.9-3.2,5.8-4.9,8.7l-2.9,5.3c-1.9,3.4-3.9,6.9-5.8,10.4c-0.1,0.2-0.2,0.5-0.3,0.6c0,0.1,0,0.1,0,0.1v0.1V40
			c0,0.9,0.3,1.5,1,1.9c1.5,0.9,3,1.9,4.5,2.8l4.6,2.9c1.5,0.9,3,1.9,4.5,2.8c0.4,0.2,0.8,0.4,1.1,0.4c0.4,0,0.8-0.1,1.1-0.4
			c0.2-0.1,0.5-0.3,0.7-0.4l3.5-2.2c3.1-1.9,6.2-3.9,9.3-5.8c1.1-0.7,1.3-1.7,0.7-2.8C48.6,38.8,48.4,38.4,48.2,38.1z M34.5,48v-0.5
			c0-1.1,0-2.2,0-3.3S35,42.4,36,42c1.5-0.6,2.8-1.5,3.7-2.9c0.3-0.4,0.1-0.7-0.1-0.9c-0.2-0.2-0.3-0.4-0.5-0.6
			c-0.1-0.1-0.1-0.2-0.2-0.3l-0.3-0.4l-0.3,0.4c-0.1,0.1-0.1,0.2-0.2,0.3c-0.1,0.2-0.3,0.4-0.5,0.6c-0.6,0.8-1.4,1.3-2.4,1.7
			c-1.8,0.7-2.9,2.2-2.9,4.1c0,1,0,1.9,0,2.9c0,0.3,0,0.7,0,1l-11.6-7.3c0.3-0.1,0.7-0.3,1-0.4c1-0.5,2.1-0.9,3.1-1.4
			c0.3-0.1,0.6-0.2,0.9-0.2c0.6,0,1.2,0.3,1.7,0.9c1,1.3,2.3,2.1,3.9,2.6c0.1,0,0.2,0,0.2,0.1h0.1l0.3,0.1l1.2-1.9l-0.5-0.1
			c-0.1,0-0.3-0.1-0.4-0.1c-0.3-0.1-0.5-0.1-0.8-0.2c-0.9-0.4-1.7-0.9-2.3-1.6c-0.9-1.1-2.1-1.7-3.5-1.7c-0.7,0-1.3,0.1-1.9,0.4
			c-0.8,0.4-1.7,0.8-2.8,1.2l11.4-20.4c0,0,0,5.7,0,7.5c0,1.2-0.5,1.9-1.6,2.3c-3.2,1.2-5.2,4.4-4.9,7.7c0,0.1,0,0.1,0,0.2v0.3
			l2.1,0.5v-0.5c0-0.2,0-0.4,0-0.5c0-0.4,0-0.7,0-1.1c0.3-2.2,1.5-3.7,3.5-4.6c2-0.8,3-2.3,3-4.4c0-2,0-3.9,0-5.9v-1.6l11.4,20.4
			c-0.4-0.2-0.8-0.4-1.2-0.5c-0.5-0.2-2.5-1.1-2.5-1.1c-0.8-0.4-1.2-1-1.2-1.8c0-1.3-0.3-2.6-1-3.7c-1.1-1.9-2.7-3.2-4.9-3.7
			l-0.3-0.1l-1.2,1.9l0.6,0.1c0.1,0,0.1,0,0.2,0c2.7,0.6,4.4,2.7,4.5,5.5c0,1.6,0.8,2.9,2.3,3.6c0.8,0.4,1.5,0.7,2.3,1.1
			c0.3,0.1,0.6,0.3,1,0.4c0.5,0.2,1,0.5,1.5,0.7l0.1,0.1L34.5,48z M60.4,14.3c-3.9-5.5-9.4-9.7-15.7-12C38.2-0.1,31-0.3,24.4,1.6
			C18,3.4,12.2,7.2,8,12.3c-4.3,5.3-7,11.8-7.5,18.6s1.1,13.8,4.7,19.6c3.4,5.6,8.6,10.2,14.6,13c6.4,2.9,13.5,3.7,20.3,2.3
			c6.5-1.3,12.6-4.7,17.2-9.6c4.6-4.8,7.7-11.1,8.7-17.7c0.3-1.7,0.4-3.4,0.4-5.1C66.4,26.6,64.3,19.8,60.4,14.3z M64.3,35.9
			c0,0.4-0.1,0.8-0.1,1.2c0,0.1,0,0.2,0,0.3c0,0,0,0.2,0,0c0,0.2-0.1,0.5-0.1,0.7c-0.3,1.6-0.6,3.2-1.2,4.8
			c-0.2,0.7-0.5,1.5-0.8,2.2c0,0-0.1,0.3,0,0.1c0,0.1-0.1,0.2-0.1,0.3c-0.1,0.2-0.2,0.4-0.2,0.5c-0.2,0.4-0.4,0.8-0.6,1.2
			c-0.7,1.4-1.6,2.8-2.5,4.1c-0.2,0.3-0.4,0.6-0.6,0.9c0,0,0,0.1-0.1,0.1l0,0c-0.1,0.1-0.1,0.2-0.2,0.2c-0.1,0.2-0.3,0.4-0.4,0.5
			c-0.5,0.6-1,1.2-1.6,1.8c-0.5,0.6-1.1,1.1-1.7,1.6c-0.3,0.3-0.6,0.5-0.9,0.8c-0.1,0.1-0.3,0.2-0.4,0.3c-0.1,0.1-0.1,0.1-0.2,0.2
			c-0.1,0-0.1,0.1-0.2,0.1c0.1-0.1,0.1-0.1,0,0c-1.3,1-2.6,1.8-4,2.6c-0.7,0.4-1.4,0.7-2.1,1.1c-0.2,0.1-0.3,0.1-0.5,0.2
			c-0.1,0-0.2,0.1-0.3,0.1s-0.1,0-0.1,0c-0.4,0.2-0.8,0.3-1.2,0.5c-1.5,0.6-3.1,1-4.7,1.3c-0.4,0.1-0.7,0.1-1.1,0.2
			c-0.2,0-0.4,0.1-0.6,0.1l0,0c0,0,0,0-0.1,0s-0.3,0-0.4,0.1c-0.9,0.1-1.7,0.2-2.6,0.2c-1.7,0.1-3.3,0-5-0.2c-0.1,0-0.2,0-0.3,0
			c-0.3,0,0.2,0-0.1,0c-0.2,0-0.4-0.1-0.6-0.1c-0.4-0.1-0.9-0.1-1.3-0.2c-0.8-0.2-1.6-0.3-2.3-0.6c-0.8-0.2-1.6-0.5-2.4-0.8
			c-0.3-0.1-0.7-0.3-1-0.4c0,0-0.3-0.1-0.1,0c-0.1,0-0.2-0.1-0.3-0.1c-0.2-0.1-0.4-0.2-0.6-0.3c-1.4-0.7-2.8-1.4-4.2-2.3
			c-0.6-0.4-1.3-0.9-1.9-1.3l-0.1-0.1c-0.1-0.1-0.2-0.1-0.2-0.2c-0.1-0.1-0.3-0.2-0.5-0.4c-0.3-0.3-0.6-0.5-1-0.8
			c-1.2-1-2.2-2.2-3.2-3.4c-0.5-0.7-0.8-1.1-1.4-1.8c-0.4-0.6-0.9-1.3-1.3-2s-0.8-1.4-1.2-2.1c-0.2-0.3-0.3-0.6-0.5-1
			C5.1,45.9,5,45.7,5,45.6s-0.1-0.2-0.1-0.3c0.1,0.2-0.1-0.2-0.1-0.2c-0.6-1.5-1.1-3.1-1.5-4.6c-0.2-0.8-0.3-1.6-0.5-2.4
			c0-0.2-0.1-0.4-0.1-0.6c0-0.1,0-0.1,0-0.1c0-0.1,0-0.2,0-0.3c-0.1-0.4-0.1-0.9-0.1-1.3c-0.1-1.7-0.1-3.3,0-5
			c0.1-0.9,0.1-1.6,0.3-2.4C3,27.6,3.2,26.8,3.4,26c0.4-1.6,0.9-3.1,1.5-4.6l0,0c0,0,0,0,0-0.1S5,21.1,5,21c0.1-0.2,0.2-0.4,0.2-0.5
			c0.2-0.4,0.3-0.7,0.5-1.1c0.4-0.7,0.8-1.4,1.2-2.1c0.4-0.7,0.8-1.3,1.3-2c0.2-0.3,0.5-0.6,0.7-0.9C8.8,14.6,9,14.3,9,14.3
			c0.1-0.1,0.1-0.2,0.2-0.2c0.1-0.2,0.3-0.3,0.4-0.5c1-1.2,2.1-2.3,3.2-3.3c0.3-0.3,0.6-0.5,0.9-0.8c0.1-0.1,0.3-0.2,0.5-0.4
			C14.3,9,14.4,9,14.4,8.9c0.1-0.1,0.1-0.1,0,0c0.1,0,0.1-0.1,0.2-0.1c0.6-0.5,1.3-0.9,1.9-1.3c1.3-0.9,2.7-1.6,4.2-2.3
			C20.9,5.1,21.1,5,21.2,5c0,0,0.3-0.1,0.1-0.1c0.1,0,0.2-0.1,0.3-0.1c0.4-0.1,0.7-0.3,1.1-0.4c0.8-0.3,1.6-0.5,2.4-0.8
			c0.8-0.2,1.6-0.4,2.3-0.6c0.4-0.1,0.8-0.1,1.2-0.2c0.2,0,0.4-0.1,0.6-0.1c0.1,0,0.1,0,0.1,0c0.1,0,0.3,0,0.4-0.1
			c1.6-0.2,3.3-0.2,5-0.2c0.9,0,1.7,0.1,2.6,0.2c0.1,0,0.2,0,0.3,0s0.2,0,0.2,0c0.2,0,0.4,0.1,0.6,0.1c0.4,0.1,0.8,0.1,1.2,0.2
			c1.6,0.3,3.2,0.8,4.7,1.3c0.4,0.1,0.7,0.3,1.1,0.4l0,0c0,0,0,0,0.1,0s0.2,0.1,0.3,0.1c0.2,0.1,0.4,0.2,0.5,0.2
			C47,5.2,47.8,5.6,48.5,6c0.7,0.4,1.4,0.8,2,1.2c0.3,0.2,0.6,0.4,1,0.7C51.7,8,51.8,8.1,52,8.2c0.1,0.1,0.2,0.1,0.2,0.2
			c0,0,0.1,0.1,0.2,0.1c1.2,1,2.4,2,3.5,3.1c0.6,0.6,1.1,1.2,1.6,1.8c0.1,0.1,0.2,0.3,0.4,0.5c0.1,0.1,0.1,0.2,0.2,0.2
			c-0.1-0.2,0.1,0.1,0.1,0.1c0.2,0.3,0.5,0.6,0.7,0.9c0.9,1.3,1.7,2.7,2.4,4.1c0.2,0.3,0.3,0.7,0.5,1.1c0.1,0.2,0.2,0.4,0.2,0.5
			c0,0,0.1,0.3,0.1,0.1c0,0.1,0.1,0.2,0.1,0.3c0.3,0.8,0.6,1.5,0.8,2.3c0.5,1.6,0.9,3.2,1.1,4.8c0,0.1,0,0.2,0,0.3c0,0,0,0.3,0,0.2
			s0,0.2,0,0.2c0,0.1,0,0.2,0,0.3c0,0.4,0.1,0.8,0.1,1.2c0.1,0.8,0.1,1.7,0.1,2.5C64.4,34.2,64.3,35.1,64.3,35.9z"/>
	</g>
</g>
</svg>
