<?xml version="1.0" encoding="utf-8"?>
<!-- Generator: Adobe Illustrator 22.1.0, SVG Export Plug-In . SVG Version: 6.00 Build 0)  -->
<svg version="1.1" id="Layer_1" xmlns="http://www.w3.org/2000/svg" xmlns:xlink="http://www.w3.org/1999/xlink" x="0px" y="0px"
	 viewBox="0 0 67.2 67.4" style="enable-background:new 0 0 67.2 67.4;" xml:space="preserve">
<g>
	<g>
		<path d="M60.9,14.4C57,8.8,51.5,4.6,45.1,2.2c-6.5-2.4-13.9-2.6-20.6-0.7C18.1,3.4,12.2,7.2,7.9,12.4c-4.4,5.3-7,11.9-7.6,18.8
			C-0.2,38.1,1.4,45.1,5,51c3.5,5.7,8.7,10.3,14.8,13.1c6.4,2.9,13.7,3.7,20.6,2.3c6.6-1.3,12.7-4.8,17.4-9.7s7.8-11.2,8.8-17.9
			c0.3-1.7,0.4-3.4,0.4-5.2C67.1,26.8,64.9,20,60.9,14.4z M64.9,36.2c0,0.4-0.1,0.8-0.1,1.2c0,0.1,0,0.2,0,0.3c0,0,0,0.2,0,0
			c0,0.2-0.1,0.5-0.1,0.7c-0.3,1.6-0.7,3.2-1.2,4.8c-0.2,0.8-0.5,1.5-0.8,2.2c0,0-0.1,0.3,0,0.1c0,0.1-0.1,0.2-0.1,0.3
			c-0.1,0.2-0.2,0.4-0.2,0.5c-0.2,0.4-0.4,0.8-0.6,1.2c-0.7,1.4-1.6,2.8-2.5,4.1c-0.2,0.3-0.4,0.6-0.6,0.9c0,0,0,0.1-0.1,0.1l0,0
			c-0.1,0.1-0.1,0.2-0.2,0.2c-0.1,0.2-0.3,0.4-0.4,0.5c-0.5,0.6-1,1.2-1.6,1.8s-1.1,1.1-1.7,1.7c-0.3,0.3-0.6,0.5-0.9,0.8
			c-0.1,0.1-0.3,0.2-0.4,0.3c-0.1,0.1-0.2,0.1-0.2,0.2c-0.1,0-0.1,0.1-0.2,0.1c0.1-0.1,0.1-0.1,0,0c-1.3,1-2.6,1.9-4,2.6
			c-0.7,0.4-1.4,0.8-2.2,1.1c-0.2,0.1-0.3,0.2-0.5,0.2c-0.1,0-0.2,0.1-0.3,0.1c0.2-0.1-0.1,0-0.1,0c-0.4,0.2-0.8,0.3-1.2,0.5
			c-1.6,0.6-3.1,1-4.8,1.3c-0.4,0.1-0.7,0.1-1.1,0.2c-0.2,0-0.4,0.1-0.6,0.1l0,0c0,0,0,0-0.1,0s-0.3,0-0.4,0.1
			c-0.9,0.1-1.7,0.2-2.6,0.2c-1.7,0.1-3.4,0-5-0.2c-0.1,0-0.2,0-0.3,0c-0.3,0,0.2,0-0.1,0c-0.2,0-0.4-0.1-0.6-0.1
			c-0.4-0.1-0.9-0.1-1.3-0.2c-0.8-0.2-1.6-0.4-2.4-0.6c-0.8-0.2-1.6-0.5-2.4-0.8c-0.3-0.1-0.7-0.3-1-0.4c0,0-0.3-0.1-0.1,0
			c-0.1,0-0.2-0.1-0.3-0.1c-0.2-0.1-0.4-0.2-0.6-0.3c-1.5-0.7-2.9-1.5-4.2-2.4c-0.6-0.4-1.3-0.9-1.9-1.4L14.8,58
			c-0.1-0.1-0.2-0.1-0.2-0.2c-0.1-0.1-0.3-0.2-0.5-0.4c-0.3-0.3-0.6-0.5-1-0.8c-1.2-1.1-2.3-2.2-3.3-3.4c-0.5-0.7-0.9-1.1-1.4-1.8
			c-0.4-0.6-0.9-1.3-1.3-2c-0.4-0.7-0.8-1.4-1.2-2.2c-0.2-0.3-0.3-0.7-0.5-1c-0.1-0.2-0.2-0.4-0.2-0.5s-0.1-0.2-0.1-0.3
			C5.2,45.6,5,45.2,5,45.2c-0.6-1.5-1.1-3.1-1.5-4.7c-0.2-0.8-0.3-1.6-0.5-2.4c0-0.2-0.1-0.4-0.1-0.6c0-0.1,0-0.1,0-0.1
			c0-0.1,0-0.2,0-0.3c-0.1-0.4-0.1-0.9-0.1-1.3c-0.1-1.7-0.1-3.4,0-5c0.1-0.9,0.1-1.6,0.3-2.4c0.1-0.8,0.3-1.6,0.5-2.4
			c0.4-1.6,0.9-3.1,1.5-4.7l0,0c0,0,0,0,0-0.1s0.1-0.2,0.1-0.3c0.1-0.2,0.2-0.4,0.2-0.5c0.2-0.4,0.3-0.7,0.5-1.1
			c0.4-0.7,0.8-1.5,1.2-2.2s0.8-1.3,1.3-2c0.2-0.3,0.5-0.6,0.7-0.9c-0.1,0.2,0.1-0.1,0.1-0.1c0.1-0.1,0.1-0.2,0.2-0.2
			c0.1-0.2,0.3-0.4,0.4-0.5c1-1.2,2.1-2.3,3.3-3.4c0.3-0.3,0.6-0.5,0.9-0.8c0.2-0.1,0.3-0.2,0.5-0.4c0.1-0.1,0.2-0.1,0.2-0.2
			c0.1-0.1,0.1-0.1,0,0c0.1,0,0.1-0.1,0.2-0.1c0.6-0.5,1.3-0.9,1.9-1.4c1.4-0.9,2.8-1.7,4.2-2.3c0.2-0.1,0.4-0.2,0.5-0.2
			c0,0,0.3-0.1,0.1-0.1c0.1,0,0.2-0.1,0.3-0.1C22.3,4.2,22.6,4.1,23,4c0.8-0.3,1.6-0.5,2.4-0.8C26.2,3,27,2.8,27.8,2.6
			c0.4-0.1,0.8-0.2,1.2-0.2c0.2,0,0.4-0.1,0.6-0.1c0.1,0,0.1,0,0.2,0c0.1,0,0.3,0,0.4-0.1C31.9,2,33.5,2,35.2,2
			c0.9,0,1.7,0.1,2.6,0.2c0.1,0,0.2,0,0.3,0s0.2,0,0.2,0c0.2,0,0.4,0.1,0.6,0.1c0.4,0.1,0.8,0.1,1.2,0.2c1.6,0.3,3.2,0.8,4.7,1.4
			c0.4,0.1,0.7,0.3,1.1,0.4l0,0c0,0,0,0,0.1,0s0.2,0.1,0.3,0.1c0.2,0.1,0.4,0.2,0.5,0.2c0.8,0.3,1.5,0.7,2.2,1.1
			c0.7,0.4,1.4,0.8,2,1.2c0.3,0.2,0.7,0.4,1,0.7c0.2,0.1,0.3,0.2,0.5,0.3C52.6,8,52.7,8,52.7,8.1c0,0,0.1,0.1,0.2,0.1
			c1.2,1,2.4,2,3.5,3.1c0.6,0.6,1.1,1.2,1.6,1.8c0.1,0.2,0.2,0.3,0.4,0.5c0.1,0.1,0.1,0.2,0.2,0.2c-0.1-0.2,0.1,0.1,0.1,0.1
			c0.2,0.3,0.5,0.6,0.7,1c0.9,1.3,1.8,2.7,2.5,4.1c0.2,0.4,0.3,0.7,0.5,1.1c0.1,0.2,0.2,0.4,0.2,0.5c0,0,0.1,0.3,0.1,0.1
			c0,0.1,0.1,0.2,0.1,0.3c0.3,0.8,0.6,1.6,0.8,2.4c0.5,1.6,0.9,3.2,1.1,4.8c0,0.1,0,0.2,0,0.3c0,0,0,0.3,0,0.2c0-0.2,0,0.2,0,0.2
			c0,0.1,0,0.2,0,0.3c0,0.4,0.1,0.8,0.1,1.2c0.1,0.8,0.1,1.7,0.1,2.5C65,34.5,64.9,35.3,64.9,36.2z M46.1,29.2c0.5,0,0.9,0,1.3,0
			h0.9c-0.7-2.5-2.3-5-4.4-6.9c-1.9-1.7-5.2-3.7-9.9-3.7c-0.3,0-0.6,0-0.9,0c-7.9,0.4-14.1,7-14,15c0,3.9,1.5,7.5,4.2,10.3
			s6.2,4.4,10,4.5c0.2,0,0.5,0,0.7,0c4.7,0,8-2,9.9-3.7c2.1-1.9,3.7-4.4,4.4-6.9c-0.1,0-0.2,0-0.3,0c-0.2,0-0.5,0-0.7,0
			c-0.5,0-0.9,0-1.2,0c-0.5,1.3-1.1,2.5-2,3.6c-2.6,3.3-6,4.9-10.1,5c-0.1,0-0.1,0-0.2,0c-2.1,0-4.1-0.5-5.9-1.5
			c-4.2-2.4-6.5-6-6.8-10.7c-0.2-3.4,0.8-6.4,3.1-9c2.6-3,5.8-4.5,9.5-4.5c0.9,0,1.8,0.1,2.7,0.3c2.4,0.5,4.4,1.4,6.1,2.9
			C44.1,25.2,45.3,27,46.1,29.2z M35.9,34.5c1.3-0.8,2-2.4,1.6-3.9s-1.7-2.7-3.2-2.8c-1.7-0.1-3.2,0.9-3.7,2.5s0.1,3.3,1.5,4.2
			c0.2,0.1,0.3,0.3,0.3,0.5c0,1.1,0,2.3,0,3.4c0,0.3,0,0.7,0,0.8c0.1,0,0.2,0.1,0.3,0.1c0.6,0,2.5,0,2.5,0c0.4,0,0.4,0,0.4-0.4
			c0-1.3,0-2.6,0-3.9C35.6,34.8,35.7,34.7,35.9,34.5z"/>
	</g>
</g>
</svg>
