<?xml version="1.0" encoding="utf-8"?>
<!-- Generator: Adobe Illustrator 22.1.0, SVG Export Plug-In . SVG Version: 6.00 Build 0)  -->
<svg version="1.1" id="Layer_1" xmlns="http://www.w3.org/2000/svg" xmlns:xlink="http://www.w3.org/1999/xlink" x="0px" y="0px"
	 viewBox="0 0 66.6 66.8" style="enable-background:new 0 0 66.6 66.8;" xml:space="preserve">
<g>
	<g>
		<path d="M60.3,14.4c-3.9-5.5-9.4-9.6-15.6-12C38.2,0,31-0.2,24.5,1.7C18,3.5,12.2,7.3,8,12.4C3.7,17.7,1,24.1,0.5,31
			C0,37.8,1.6,44.8,5.2,50.6c3.4,5.6,8.6,10.2,14.6,12.9c6.4,2.9,13.5,3.7,20.3,2.3c6.5-1.3,12.6-4.7,17.2-9.5S65,45.2,66,38.6
			c0.3-1.7,0.4-3.4,0.4-5.1C66.4,26.7,64.3,19.9,60.3,14.4z M64.2,36c0,0.4-0.1,0.8-0.1,1.2c0,0.1,0,0.2,0,0.3c0,0,0,0.2,0,0
			c0,0.2-0.1,0.5-0.1,0.7c-0.3,1.6-0.6,3.2-1.1,4.8c-0.2,0.7-0.5,1.5-0.8,2.2c0,0-0.1,0.3,0,0.1c0,0.1-0.1,0.2-0.1,0.3
			c-0.1,0.2-0.2,0.4-0.2,0.5c-0.2,0.4-0.4,0.8-0.6,1.1c-0.7,1.4-1.5,2.8-2.5,4.1c-0.2,0.3-0.4,0.6-0.6,0.9c0,0,0,0.1-0.1,0.1l0,0
			c-0.1,0.1-0.1,0.2-0.2,0.2c-0.1,0.2-0.3,0.4-0.4,0.5c-0.5,0.6-1,1.2-1.6,1.8c-0.5,0.6-1.1,1.1-1.7,1.6c-0.3,0.3-0.6,0.5-0.9,0.8
			c-0.1,0.1-0.3,0.2-0.4,0.3c-0.1,0.1-0.1,0.1-0.2,0.2c-0.1,0-0.1,0.1-0.2,0.1c0.1-0.1,0.1-0.1,0,0c-1.3,1-2.6,1.8-4,2.6
			c-0.7,0.4-1.4,0.7-2.1,1.1c-0.2,0.1-0.3,0.1-0.5,0.2c-0.1,0-0.2,0.1-0.3,0.1c0.2-0.1-0.1,0-0.1,0c-0.4,0.2-0.8,0.3-1.2,0.5
			c-1.5,0.6-3.1,1-4.7,1.3c-0.4,0.1-0.7,0.1-1.1,0.2c-0.2,0-0.4,0.1-0.6,0.1l0,0c0,0,0,0-0.1,0s-0.3,0-0.4,0.1
			c-0.9,0.1-1.7,0.2-2.6,0.2c-1.7,0.1-3.3,0-5-0.2c-0.1,0-0.2,0-0.3,0c-0.3,0,0.2,0-0.1,0c-0.2,0-0.4-0.1-0.6-0.1
			c-0.4-0.1-0.9-0.1-1.3-0.2c-0.8-0.2-1.6-0.3-2.3-0.6c-0.8-0.2-1.6-0.5-2.4-0.8c-0.3-0.1-0.7-0.3-1-0.4c0,0-0.3-0.1-0.1,0
			c-0.1,0-0.2-0.1-0.3-0.1c-0.2-0.1-0.4-0.2-0.6-0.3c-1.4-0.7-2.8-1.4-4.2-2.3c-0.6-0.4-1.3-0.9-1.9-1.3l-0.1-0.1
			c-0.1-0.1-0.2-0.1-0.2-0.2c-0.1-0.1-0.3-0.2-0.5-0.4c-0.3-0.3-0.6-0.5-1-0.8c-1.1-1-2.2-2.2-3.2-3.4c-0.5-0.7-0.8-1.1-1.4-1.8
			c-0.4-0.6-0.9-1.3-1.3-2c-0.4-0.7-0.8-1.4-1.2-2.1c-0.2-0.3-0.3-0.6-0.5-1c-0.1-0.2-0.2-0.4-0.2-0.5S5,45.4,5,45.3
			c0.1,0.2-0.1-0.2-0.1-0.2c-0.6-1.5-1.1-3.1-1.5-4.6c-0.2-0.8-0.3-1.6-0.5-2.4c0-0.2-0.1-0.4-0.1-0.6c0-0.1,0-0.1,0-0.2
			c0-0.1,0-0.2,0-0.3c-0.1-0.4-0.1-0.9-0.1-1.3c-0.1-1.7-0.1-3.3,0-5c0.1-0.9,0.1-1.6,0.3-2.4c0.1-0.8,0.3-1.6,0.5-2.4
			c0.4-1.6,0.9-3.1,1.5-4.6l0,0c0,0,0,0,0-0.1s0.1-0.2,0.1-0.3c0.1-0.2,0.2-0.4,0.2-0.5c0.2-0.4,0.3-0.7,0.5-1.1
			c0.4-0.7,0.8-1.4,1.2-2.1s0.8-1.3,1.3-2c0.2-0.3,0.5-0.6,0.7-0.9c-0.1,0.2,0.1-0.1,0.1-0.1C9.2,14.1,9.2,14,9.3,14
			c0.1-0.2,0.3-0.3,0.4-0.5c1-1.2,2.1-2.3,3.2-3.3c0.3-0.3,0.6-0.5,0.9-0.8c0.1-0.1,0.3-0.2,0.5-0.4c0.1-0.1,0.2-0.1,0.2-0.2
			c0.1-0.1,0.1-0.1,0,0c0.1,0,0.1-0.1,0.2-0.1c0.6-0.5,1.3-0.9,1.9-1.3c1.3-0.9,2.7-1.6,4.2-2.3C21,5,21.2,4.9,21.3,4.9
			c0,0,0.3-0.1,0.1-0.1c0.1,0,0.2-0.1,0.3-0.1c0.4-0.1,0.7-0.3,1.1-0.4c0.8-0.3,1.6-0.5,2.4-0.8c0.8-0.2,1.6-0.4,2.3-0.6
			c0.4-0.1,0.8-0.1,1.2-0.2c0.2,0,0.4-0.1,0.6-0.1c0.1,0,0.1,0,0.2,0c0.1,0,0.3,0,0.4-0.1c1.6-0.2,3.3-0.2,5-0.2
			c0.9,0,1.7,0.1,2.6,0.2c0.1,0,0.2,0,0.3,0H38c0.2,0,0.4,0.1,0.6,0.1c0.4,0.1,0.8,0.1,1.2,0.2c1.6,0.3,3.2,0.8,4.7,1.3
			c0.4,0.1,0.7,0.3,1.1,0.4l0,0c0,0,0,0,0.1,0s0.2,0.1,0.3,0.1c0.2,0.1,0.4,0.2,0.5,0.2c0.7,0.3,1.5,0.7,2.2,1.1
			c0.7,0.4,1.3,0.8,2,1.2c0.3,0.2,0.6,0.4,1,0.7C51.9,7.9,52,8,52.2,8.1c0.1,0.1,0.2,0.1,0.2,0.2c0,0,0.1,0.1,0.2,0.1
			c1.2,1,2.4,2,3.4,3.1c0.6,0.6,1.1,1.2,1.6,1.8c0.1,0.1,0.2,0.3,0.4,0.5c0.1,0.1,0.1,0.2,0.2,0.2c-0.1-0.2,0.1,0.1,0.1,0.1
			c0.2,0.3,0.5,0.6,0.7,0.9c0.9,1.3,1.7,2.7,2.4,4.1c0.2,0.3,0.3,0.7,0.5,1.1c0.1,0.2,0.2,0.4,0.2,0.5c0,0,0.1,0.3,0.1,0.1
			c0,0.1,0.1,0.2,0.1,0.3c0.3,0.8,0.6,1.5,0.8,2.3c0.5,1.6,0.9,3.2,1.1,4.8c0,0.1,0,0.2,0,0.3c0,0,0,0.3,0,0.2s0,0.2,0,0.2
			c0,0.1,0,0.2,0,0.3c0,0.4,0.1,0.8,0.1,1.2c0.1,0.8,0.1,1.7,0.1,2.5C64.3,34.3,64.3,35.2,64.2,36z M47.8,31.9
			c-0.2-0.4-0.5-0.9-0.7-1.3c-3.1-5.2-6.6-11-10.1-16.7c-0.6-1.1-1.3-2.1-2-3.1c-0.3-0.5-0.6-0.9-0.9-1.4c-0.1-0.2-0.3-0.3-0.5-0.3
			h-0.1c-0.2,0-0.4,0.1-0.5,0.3c0,0,0,0-0.1,0.1c-4.4,7.3-8.7,14.5-13.1,21.8c-0.2,0.3-0.4,0.6-0.6,0.9c-0.1,0.1-0.2,0.3-0.3,0.4
			c-0.1,0.1-0.1,0.3-0.1,0.5s0.1,0.3,0.3,0.4c0.1,0.1,0.2,0.1,0.3,0.2c0.2,0.1,0.4,0.2,0.6,0.3c1,0.6,2,1.2,3,1.8
			c1.5,0.9,3.1,1.9,4.7,2.8c1,0.6,2.1,1.2,3.1,1.8c0.7,0.4,1.4,0.8,2,1.2c0.2,0.1,0.4,0.2,0.6,0.2c0.2,0,0.4-0.1,0.6-0.2
			c3.2-1.9,6-3.6,8.6-5.1c1.2-0.7,2.3-1.4,3.5-2c0.5-0.3,1.1-0.6,1.6-0.9c0.2-0.1,0.3-0.3,0.3-0.5V33c0-0.1,0-0.2-0.1-0.3
			C48,32.3,47.8,32.1,47.8,31.9z M32.5,39l-10.3-6.1l10.3-4.7V39z M23,30.4l-0.5,0.2l10.1-16.7V14c0,4,0,8.1,0,12.1
			C29.3,27.5,26.2,29,23,30.4z M34.5,14.5v-0.7l10.2,16.9l-4.3-1.9c-1.9-0.9-3.9-1.8-5.9-2.7C34.5,22.2,34.5,18.3,34.5,14.5z
			 M34.5,39V28.2l10.3,4.7L34.5,39z M47.2,35.9c-0.1,0-0.1,0-0.2,0H47c0,0-0.1,0-0.2,0.1c-0.2,0.1-0.5,0.2-0.7,0.4
			c-0.5,0.3-1,0.6-1.5,0.9c-4,2.4-7.9,4.7-11,6.6c-0.2-0.1-0.4-0.2-0.5-0.3c-0.3-0.1-0.5-0.3-0.8-0.4c-2.2-1.3-4.4-2.6-6.6-3.9
			c-1.3-0.8-2.6-1.6-4-2.3c-0.3-0.2-0.6-0.4-1-0.6c-0.2-0.1-0.3-0.2-0.5-0.3C20.1,36,20,36,19.9,36c-0.1,0-0.3,0-0.4,0.1
			c-0.2,0.2-0.3,0.4-0.2,0.6l0,0c0,0,0,0.1,0.1,0.2l4.2,5.9c3.1,4.3,6.2,8.7,9.2,13v0.1c0,0,0,0.1,0.1,0.1c0.1,0.2,0.3,0.3,0.5,0.3
			h0.1c0.2,0,0.4-0.1,0.5-0.3c0,0,0,0,0-0.1c0,0,0-0.1,0.1-0.1L47.3,37c0-0.1,0.1-0.1,0.1-0.2c0,0,0-0.1,0.1-0.1
			c0.1-0.2,0.1-0.5,0-0.7C47.5,36,47.5,35.9,47.2,35.9z M32.5,52L32.5,52l-7.9-11.1l3,1.8c1.6,0.9,3.2,1.9,4.9,2.8
			C32.5,47.6,32.5,49.8,32.5,52z M34.5,52c0-2.1,0-4.3,0-6.5c2.6-1.5,5.3-3.1,7.9-4.6L34.5,52z"/>
	</g>
</g>
</svg>
