<?xml version="1.0" encoding="utf-8"?>
<!-- Generator: Adobe Illustrator 22.1.0, SVG Export Plug-In . SVG Version: 6.00 Build 0)  -->
<svg version="1.1" id="Layer_1" xmlns="http://www.w3.org/2000/svg" xmlns:xlink="http://www.w3.org/1999/xlink" x="0px" y="0px"
	 viewBox="0 0 67 66.8" style="enable-background:new 0 0 67 66.8;" xml:space="preserve">
<g>
	<g>
		<path d="M60.3,14.5c-3.9-5.5-9.4-9.6-15.6-12C38.2,0.1,31-0.1,24.4,1.8C18,3.6,12.2,7.4,8,12.5c-4.3,5.3-7,11.7-7.5,18.6
			C0,37.9,1.6,44.9,5.2,50.7c3.4,5.6,8.6,10.2,14.6,12.9c6.4,2.9,13.5,3.7,20.3,2.3c6.5-1.3,12.6-4.7,17.2-9.5S65,45.3,66,38.7
			c0.3-1.7,0.4-3.4,0.4-5.1C66.3,26.8,64.2,20,60.3,14.5z M64.1,36.1c0,0.4-0.1,0.8-0.1,1.2c0,0.1,0,0.2,0,0.3c0,0,0,0.2,0,0
			c0,0.2-0.1,0.5-0.1,0.7c-0.3,1.6-0.6,3.2-1.1,4.8c-0.2,0.7-0.5,1.5-0.8,2.2c0,0-0.1,0.3,0,0.1c0,0.1-0.1,0.2-0.1,0.3
			c-0.1,0.2-0.2,0.4-0.2,0.5c-0.2,0.4-0.4,0.8-0.6,1.1c-0.7,1.4-1.6,2.8-2.5,4.1c-0.2,0.3-0.4,0.6-0.6,0.9c0,0,0,0.1-0.1,0.1l0,0
			c-0.1,0.1-0.1,0.2-0.2,0.2c-0.1,0.2-0.3,0.4-0.4,0.5c-0.5,0.6-1,1.2-1.6,1.8c-0.5,0.6-1.1,1.1-1.7,1.6c-0.3,0.3-0.6,0.5-0.9,0.8
			c-0.1,0.1-0.3,0.2-0.4,0.3c-0.1,0.1-0.1,0.1-0.2,0.2c-0.1,0-0.1,0.1-0.2,0.1c0.1-0.1,0.1-0.1,0,0c-1.3,1-2.6,1.8-4,2.6
			c-0.7,0.4-1.4,0.7-2.1,1.1c-0.2,0.1-0.3,0.1-0.5,0.2c-0.1,0-0.2,0.1-0.3,0.1c0.2-0.1-0.1,0-0.1,0c-0.4,0.2-0.8,0.3-1.2,0.5
			c-1.5,0.6-3.1,1-4.7,1.3c-0.4,0.1-0.7,0.1-1.1,0.2c-0.2,0-0.4,0.1-0.6,0.1l0,0c0,0,0,0-0.1,0s-0.3,0-0.4,0.1
			c-0.9,0.1-1.7,0.2-2.6,0.2c-1.7,0.1-3.3,0-5-0.2c-0.1,0-0.2,0-0.3,0c-0.3,0,0.2,0-0.1,0c-0.2,0-0.4-0.1-0.6-0.1
			c-0.4-0.1-0.9-0.1-1.3-0.2c-0.8-0.2-1.6-0.3-2.3-0.6c-0.8-0.2-1.6-0.5-2.4-0.8c-0.3-0.1-0.7-0.3-1-0.4c0,0-0.3-0.1-0.1,0
			c-0.1,0-0.2-0.1-0.3-0.1c-0.2-0.1-0.4-0.2-0.6-0.3c-1.4-0.7-2.8-1.4-4.2-2.3c-0.6-0.4-1.3-0.9-1.9-1.3l-0.1-0.1
			c-0.1-0.1-0.2-0.1-0.2-0.2c-0.1-0.1-0.3-0.2-0.5-0.4c-0.3-0.3-0.6-0.5-1-0.8c-1.1-1-2.2-2.2-3.2-3.4C9,52.4,8.7,52,8.1,51.3
			c-0.4-0.6-0.9-1.3-1.3-2S6,47.9,5.6,47.2c-0.2-0.3-0.3-0.6-0.5-1C5,46,4.9,45.8,4.9,45.7s-0.1-0.2-0.1-0.3
			c0.1,0.2-0.1-0.2-0.1-0.2c-0.6-1.5-1.1-3.1-1.5-4.6C3,39.8,2.9,39,2.7,38.2c0-0.2-0.1-0.4-0.1-0.6c0-0.1,0-0.1,0-0.1
			c0-0.1,0-0.2,0-0.3c-0.1-0.4-0.1-0.8-0.1-1.3c-0.1-1.7-0.1-3.3,0-5c0.1-0.9,0.1-1.6,0.3-2.4c0.1-0.8,0.3-1.6,0.5-2.4
			c0.4-1.6,0.9-3.1,1.5-4.6l0,0c0,0,0,0,0-0.1s0.1-0.2,0.1-0.3c0.1-0.2,0.2-0.4,0.2-0.5c0.2-0.4,0.3-0.7,0.5-1.1
			c0.4-0.7,0.8-1.4,1.2-2.1c0.4-0.7,0.8-1.3,1.3-2c0.2-0.3,0.5-0.6,0.7-0.9c-0.1,0.2,0.1-0.1,0.1-0.1C9,14.3,9,14.2,9.1,14.2
			c0.1-0.2,0.3-0.3,0.4-0.5c1-1.2,2.1-2.3,3.2-3.3c0.3-0.3,0.6-0.5,0.9-0.8c0.1-0.1,0.3-0.2,0.5-0.4c0.1-0.1,0.2-0.1,0.2-0.2
			c0.1-0.1,0.1-0.1,0,0c0.1,0,0.1-0.1,0.2-0.1c0.6-0.5,1.3-0.9,1.9-1.3c1.3-0.9,2.7-1.6,4.2-2.3c0.2-0.1,0.4-0.2,0.5-0.2
			c0,0,0.3-0.1,0.1-0.1c0.1,0,0.2-0.1,0.3-0.1c0.4-0.1,0.7-0.3,1.1-0.4C23.4,4.2,24.2,4,25,3.7c0.8-0.2,1.6-0.4,2.3-0.6
			C27.7,3,28.1,3,28.5,2.9c0.2,0,0.4-0.1,0.6-0.1c0.1,0,0.1,0,0.1,0c0.1,0,0.3,0,0.4-0.1c1.6-0.2,3.3-0.2,5-0.2
			c0.9,0,1.7,0.1,2.6,0.2c0.1,0,0.2,0,0.3,0h0.2c0.2,0,0.4,0.1,0.6,0.1c0.4,0.1,0.8,0.1,1.2,0.2c1.6,0.3,3.2,0.8,4.7,1.3
			c0.4,0.1,0.7,0.3,1.1,0.4l0,0c0,0,0,0,0.1,0s0.2,0.1,0.3,0.1C45.9,4.9,46.1,5,46.2,5c0.7,0.3,1.5,0.7,2.2,1.1
			c0.7,0.4,1.3,0.8,2,1.2c0.3,0.2,0.6,0.4,1,0.7c0.2,0.1,0.3,0.2,0.5,0.3c0.1,0.1,0.2,0.1,0.2,0.2c0,0,0.1,0.1,0.2,0.1
			c1.2,1,2.4,2,3.4,3.1c0.6,0.6,1.1,1.2,1.6,1.8c0.1,0.1,0.2,0.3,0.4,0.5c0.1,0.1,0.1,0.2,0.2,0.2C57.8,14,58,14.3,58,14.3
			c0.2,0.3,0.5,0.6,0.7,0.9c0.9,1.3,1.7,2.7,2.4,4.1c0.2,0.3,0.3,0.7,0.5,1.1c0.1,0.2,0.2,0.4,0.2,0.5c0,0,0.1,0.3,0.1,0.1
			c0,0.1,0.1,0.2,0.1,0.3c0.3,0.8,0.6,1.5,0.8,2.3c0.5,1.6,0.9,3.2,1.1,4.8c0,0.1,0,0.2,0,0.3c0,0,0,0.3,0,0.2s0,0.2,0,0.2
			c0,0.1,0,0.2,0,0.3c0,0.4,0.1,0.8,0.1,1.2c0.1,0.8,0.1,1.7,0.1,2.5C64.2,34.4,64.2,35.3,64.1,36.1z M33.2,19L33.2,19
			c-1.2,0-8.7,0-10.1,0H23c-0.6,0-1,0.5-1,1s0.5,1,1,1c0.4,0,1.7,0,3.3,0v12.6c-1.5,0-2.7,0-3.2,0H23c-0.6,0-1,0.5-1,1s0.5,1,1,1
			c0.4,0,1.7,0,3.3,0v6.9c0,1.2,0,2.3,0,3.5c-1.5,0-2.7,0-3.2,0H23c-0.6,0-1,0.5-1,1c0,0.6,0.5,1,1,1s2.1,0,3.9,0c0.1,0,0.1,0,0.2,0
			h5.8c4.6,0,8.4-1.4,11-3.9c2.6-2.6,4-6.3,4-10.8s-1.4-8.2-4.1-10.8C41.3,20.4,37.6,19.1,33.2,19z M42.5,43
			c-2.1,2.1-5.2,3.2-8.9,3.3c-0.1-0.1-0.3-0.1-0.4-0.1c-0.6,0-2.6,0-4.7,0V35.8c2,0,4,0,4.7,0h0.1c0.6,0,1-0.5,1-1s-0.5-1-1-1
			c-0.6,0-2.6,0-4.7,0v-8.4c0-2.4,0-3.2,0-4.1c2,0,4,0,4.6,0h0.1c0.1,0,0.3,0,0.4-0.1c3.7,0.1,6.8,1.2,9,3.3
			c2.3,2.2,3.4,5.4,3.4,9.4C45.9,37.6,44.8,40.8,42.5,43z"/>
	</g>
</g>
</svg>
