<?xml version="1.0" encoding="utf-8"?>
<!-- Generator: Adobe Illustrator 22.1.0, SVG Export Plug-In . SVG Version: 6.00 Build 0)  -->
<svg version="1.1" id="Layer_1" xmlns="http://www.w3.org/2000/svg" xmlns:xlink="http://www.w3.org/1999/xlink" x="0px" y="0px"
	 viewBox="0 0 67.3 67" style="enable-background:new 0 0 67.3 67;" xml:space="preserve">
<g>
	<g>
		<path d="M60.6,14.2c-3.9-5.5-9.4-9.7-15.7-12c-6.5-2.4-13.8-2.6-20.4-0.7C18.1,3.3,12.3,7.1,8,12.3c-4.4,5.3-7,11.8-7.5,18.6
			s1.1,13.8,4.7,19.7c3.4,5.7,8.6,10.3,14.7,13c6.4,2.9,13.6,3.7,20.4,2.3c6.6-1.3,12.7-4.7,17.3-9.6s7.8-11.1,8.8-17.8
			c0.3-1.7,0.4-3.4,0.4-5.1C66.7,26.5,64.5,19.7,60.6,14.2z M64.5,35.9c0,0.4-0.1,0.8-0.1,1.2c0,0.1,0,0.2,0,0.3c0,0,0,0.2,0,0
			c0,0.2-0.1,0.5-0.1,0.7c-0.3,1.6-0.6,3.2-1.2,4.8c-0.2,0.8-0.5,1.5-0.8,2.2c0,0-0.1,0.3,0,0.1c0,0.1-0.1,0.2-0.1,0.3
			C62.1,45.7,62,45.9,62,46c-0.2,0.4-0.4,0.8-0.6,1.2c-0.7,1.4-1.6,2.8-2.5,4.1c-0.2,0.3-0.4,0.6-0.6,0.9c0,0,0,0.1-0.1,0.1l0,0
			c-0.1,0.1-0.1,0.2-0.2,0.2c-0.1,0.2-0.3,0.4-0.4,0.5c-0.5,0.6-1,1.2-1.6,1.8s-1.1,1.1-1.7,1.7c-0.3,0.3-0.6,0.5-0.9,0.8
			c-0.1,0.1-0.3,0.2-0.4,0.3c-0.1,0.1-0.1,0.1-0.2,0.2c-0.1,0-0.1,0.1-0.2,0.1c0.1-0.1,0.1-0.1,0,0c-1.3,1-2.6,1.8-4,2.6
			c-0.7,0.4-1.4,0.8-2.2,1.1c-0.2,0.1-0.3,0.1-0.5,0.2c-0.1,0-0.2,0.1-0.3,0.1c0.2-0.1-0.1,0-0.1,0c-0.4,0.2-0.8,0.3-1.2,0.5
			c-1.5,0.6-3.1,1-4.7,1.3c-0.4,0.1-0.7,0.1-1.1,0.2c-0.2,0-0.4,0.1-0.6,0.1l0,0c0,0,0,0-0.1,0s-0.3,0-0.4,0.1
			c-0.9,0.1-1.7,0.2-2.6,0.2c-1.7,0.1-3.3,0-5-0.2c-0.1,0-0.2,0-0.3,0c-0.3,0,0.2,0-0.1,0c-0.2,0-0.4-0.1-0.6-0.1
			c-0.4-0.1-0.9-0.1-1.3-0.2c-0.8-0.2-1.6-0.4-2.3-0.6c-0.8-0.2-1.6-0.5-2.4-0.8c-0.3-0.1-0.7-0.3-1-0.4c0,0-0.3-0.1-0.1,0
			c-0.1,0-0.2-0.1-0.3-0.1c-0.2-0.1-0.4-0.2-0.6-0.3c-1.5-0.7-2.9-1.5-4.2-2.3c-0.6-0.4-1.3-0.9-1.9-1.3l-0.1-0.1
			c-0.1-0.1-0.2-0.1-0.2-0.2c-0.1-0.1-0.3-0.2-0.5-0.4c-0.3-0.3-0.6-0.5-1-0.8c-1.2-1-2.2-2.2-3.2-3.4c-0.5-0.7-0.8-1.1-1.4-1.8
			c-0.4-0.6-0.9-1.3-1.3-2s-0.8-1.4-1.2-2.2c-0.2-0.3-0.3-0.6-0.5-1c-0.1-0.2-0.2-0.4-0.2-0.5S5,45.4,5,45.3
			c0.1,0.2-0.1-0.2-0.1-0.2c-0.6-1.5-1.1-3.1-1.5-4.7c-0.2-0.8-0.3-1.6-0.5-2.4c0-0.2-0.1-0.4-0.1-0.6c0-0.1,0-0.1,0-0.1
			c0-0.1,0-0.2,0-0.3c-0.1-0.4-0.1-0.9-0.1-1.3c-0.1-1.7-0.1-3.3,0-5c0.1-0.9,0.1-1.6,0.3-2.4c0.1-0.8,0.3-1.6,0.5-2.4
			c0.4-1.6,0.9-3.1,1.5-4.6l0,0c0,0,0,0,0-0.1s0.1-0.2,0.1-0.3c0.1-0.2,0.2-0.4,0.2-0.5c0.2-0.4,0.3-0.7,0.5-1.1
			c0.4-0.7,0.8-1.4,1.2-2.1c0.4-0.7,0.8-1.3,1.3-2c0.2-0.3,0.5-0.6,0.7-0.9c-0.1,0.2,0.1-0.1,0.1-0.1C9.2,14.1,9.2,14,9.3,14
			c0.1-0.2,0.3-0.4,0.4-0.5c1-1.2,2.1-2.3,3.3-3.4c0.3-0.3,0.6-0.5,0.9-0.8c0.1-0.1,0.3-0.2,0.5-0.4c0.1-0.1,0.2-0.1,0.2-0.2
			c0.1-0.1,0.1-0.1,0,0c0.1,0,0.1-0.1,0.2-0.1c0.6-0.5,1.3-0.9,1.9-1.3C18,6.4,19.5,5.7,20.9,5c0.2-0.1,0.4-0.2,0.5-0.2
			c0,0,0.3-0.1,0.1-0.1c0.1,0,0.2-0.1,0.3-0.1c0.4-0.1,0.7-0.3,1.1-0.4c0.8-0.3,1.6-0.5,2.4-0.8c0.8-0.2,1.6-0.4,2.4-0.6
			c0.4-0.1,0.8-0.1,1.2-0.2c0.2,0,0.4-0.1,0.6-0.1c0.1,0,0.1,0,0.1,0c0.1,0,0.3,0,0.4-0.1c1.7-0.2,3.3-0.2,5-0.2
			c0.9,0,1.7,0.1,2.6,0.2c0.1,0,0.2,0,0.3,0s0.2,0,0.2,0c0.2,0,0.4,0.1,0.6,0.1c0.4,0.1,0.8,0.1,1.2,0.2C41.5,3,43.1,3.5,44.6,4
			c0.4,0.1,0.7,0.3,1.1,0.4l0,0c0,0,0,0,0.1,0s0.2,0.1,0.3,0.1c0.2,0.1,0.4,0.2,0.5,0.2c0.7,0.3,1.5,0.7,2.2,1.1
			c0.7,0.4,1.4,0.8,2,1.2c0.3,0.2,0.6,0.4,1,0.7C52,7.8,52.1,7.9,52.3,8c0.1,0.1,0.2,0.1,0.2,0.2c0,0,0.1,0.1,0.2,0.1
			c1.2,1,2.4,2,3.5,3.1c0.6,0.6,1.1,1.2,1.6,1.8c0.1,0.1,0.2,0.3,0.4,0.5c0.1,0.1,0.1,0.2,0.2,0.2c-0.1-0.2,0.1,0.1,0.1,0.1
			c0.2,0.3,0.5,0.6,0.7,0.9c0.9,1.3,1.7,2.7,2.5,4.1c0.2,0.4,0.3,0.7,0.5,1.1c0.1,0.2,0.2,0.4,0.2,0.5c0,0,0.1,0.3,0.1,0.1
			c0,0.1,0.1,0.2,0.1,0.3c0.3,0.8,0.6,1.6,0.8,2.3c0.5,1.6,0.9,3.2,1.1,4.8c0,0.1,0,0.2,0,0.3c0,0,0,0.3,0,0.2s0,0.2,0,0.2
			c0,0.1,0,0.2,0,0.3c0,0.4,0.1,0.8,0.1,1.2c0.1,0.8,0.1,1.7,0.1,2.5C64.6,34.2,64.5,35,64.5,35.9z M34.9,34
			c0.2-0.1,0.4-0.2,0.7-0.3c0.5-0.2,1-0.4,1.4-0.5c1.2-0.3,1.9-1.1,2.1-2.3c0.1-0.6,0.3-1.2,0.4-1.8c0.1-0.3,0.2-0.6,0.2-0.9
			l0.7-2.8l-3.7,1.4l2.3-8.9l-1.7-0.2l0,0c-0.1,0-0.2,0-0.3,0h-1.9c-1.7,0-3.4,0-5.1,0c-0.9,0-1.5,0.5-1.7,1.4c-0.3,1-0.5,2-0.8,3
			l-0.3,1l-0.4,1.5c-0.6,2.2-1.2,4.5-1.8,6.7c-0.6,0.2-1.2,0.5-1.8,0.7c-0.7,0.2-1.2,0.8-1.3,1.4c-0.1,0.6-0.3,1.2-0.5,1.8l-0.1,0.5
			c-0.1,0.2-0.1,0.4-0.2,0.7l-0.8,3.2l2.9-1.1l-1.8,6.8l1.8,0.1h0.1c0.1,0,0.2,0,0.3,0h4.1c5,0,10.2,0,15.3,0l0,0
			c0.9,0,1.6-0.5,1.8-1.4c0.2-0.7,0.4-1.4,0.6-2.1c0.1-0.4,0.2-0.7,0.3-1.1c0.1-0.3,0.1-0.6,0.2-0.9c0-0.1,0.1-0.3,0.1-0.4l0.5-1.9
			H34C34.3,36.3,34.6,35.1,34.9,34z M44.5,38.9c-0.1,0.5-0.2,0.9-0.3,1.3c-0.3,1.1-0.6,2.2-0.9,3.2c-0.1,0.2-0.1,0.3-0.4,0.3
			c-6.5,0-12.9,0-19.4,0c-0.1,0-0.2,0-0.3,0c0.7-2.6,1.4-5.2,2-7.8c-1,0.4-1.9,0.7-2.9,1.1c0.1-0.4,0.2-0.7,0.3-1
			c0.2-0.8,0.4-1.5,0.6-2.3c0.1-0.2,0.2-0.3,0.4-0.4c0.8-0.3,1.6-0.6,2.4-0.9c0.1-0.1,0.3-0.2,0.3-0.3c0.8-2.9,1.5-5.8,2.3-8.7
			c0.4-1.3,0.7-2.7,1.1-4c0-0.2,0.1-0.2,0.3-0.2c2.4,0,4.7,0,7.1,0c0,0,0.1,0,0.2,0c-0.9,3.4-1.7,6.7-2.6,10.1
			c1.3-0.5,2.5-0.9,3.7-1.4c-0.2,1-0.5,1.8-0.7,2.7c-0.1,0.6-0.4,1-1.1,1.1c-0.9,0.3-1.7,0.6-2.6,0.9c-0.3,0.1-0.4,0.2-0.4,0.5
			c-0.4,1.7-0.9,3.4-1.3,5.1c-0.1,0.2-0.1,0.4-0.2,0.7C32.1,38.9,44.5,38.9,44.5,38.9z"/>
	</g>
</g>
</svg>
