<?xml version="1.0" encoding="utf-8"?>
<!-- Generator: Adobe Illustrator 22.1.0, SVG Export Plug-In . SVG Version: 6.00 Build 0)  -->
<svg version="1.1" id="Layer_1" xmlns="http://www.w3.org/2000/svg" xmlns:xlink="http://www.w3.org/1999/xlink" x="0px" y="0px"
	 viewBox="0 0 41.7 42" style="enable-background:new 0 0 41.7 42;" xml:space="preserve">
<path d="M4.3,0.3c-2.2,0-4.1,1.8-4.1,4.1v18.1c0,2.2,1.8,4.1,4.1,4.1h2.6l-0.7,7.5c-0.1,0.7,0.4,1.4,1.2,1.5c0.4,0,0.8-0.1,1.1-0.4
	l8.6-8.6h2.1v7.2c0,1.8,1.5,3.4,3.3,3.4h7.9l4.6,4.2c0.4,0.4,1,0.5,1.5,0.2c0.5-0.2,0.8-0.8,0.7-1.4l-0.3-3h1.5
	c1.9,0,3.3-1.6,3.3-3.4V20.9c0-1.8-1.5-3.4-3.3-3.4h-3.9V4.4c0-2.2-1.8-4.1-4.1-4.1H4.3L4.3,0.3z M4.3,3.1h26.2
	c0.8,0,1.4,0.6,1.4,1.4v13.1h-9.3c-1.9,0-3.3,1.6-3.3,3.4v2.9h-2.8c-0.4,0-0.7,0.1-1,0.4l-6.3,6.3l0.5-5.2c0.1-0.7-0.5-1.4-1.2-1.5
	H8.4H4.3c-0.8,0-1.4-0.6-1.4-1.4V4.4C2.9,3.6,3.5,3.1,4.3,3.1L4.3,3.1z M22.5,20.2h15.9c0.3,0,0.6,0.3,0.6,0.7v12.8
	c0,0.4-0.3,0.7-0.6,0.7h-3c-0.8,0-1.4,0.7-1.3,1.5l0.1,1l-2.4-2.1c-0.2-0.2-0.6-0.4-0.9-0.4h-8.4c-0.4,0-0.6-0.3-0.6-0.7V20.9
	C21.9,20.5,22.2,20.2,22.5,20.2L22.5,20.2z"/>
</svg>
