<?xml version="1.0" encoding="utf-8"?>
<!-- Generator: Adobe Illustrator 22.1.0, SVG Export Plug-In . SVG Version: 6.00 Build 0)  -->
<svg version="1.1" id="Layer_1" xmlns="http://www.w3.org/2000/svg" xmlns:xlink="http://www.w3.org/1999/xlink" x="0px" y="0px"
	 viewBox="0 0 67.5 67.3" style="enable-background:new 0 0 67.5 67.3;" xml:space="preserve">
<g>
	<g>
		<path d="M41.5,33.6c1.4-0.8,2.6-2.1,3.3-3.6c1-2.3,0.8-5-0.5-7.2c-1.3-2-3.3-3.3-5.7-3.6c-0.3,0-0.6-0.1-1-0.1v-2.9
			c0-0.6-0.5-1-1-1s-1,0.5-1,1v2.9h-3.4c-0.8,0-1.6,0-2.3,0c0-1,0-1.9,0-2.9l0,0c0-0.6-0.5-1-1-1c-0.6,0-1,0.5-1,1v2.9
			c-0.9,0-1.8,0-2.8,0H25c-0.6,0-1,0.5-1,1c0,0.6,0.5,1.1,1.1,1.1H28V46c-0.9,0-1.8,0-2.7,0h-0.5c-0.6,0-1,0.5-1,1c0,0.6,0.5,1,1,1
			h2.8c0,1,0,1.9,0,2.9V51c0,0.6,0.5,1,1,1c0.6,0,1-0.5,1-1v-3h1.2c1.5,0,3,0,4.6,0v3c0,0.6,0.5,1,1,1s1-0.5,1-1v-3l0,0
			c2.4,0,4.7-1.1,6.1-3c1.6-2,2.1-4.8,1.3-7.3C44.4,36,43.1,34.5,41.5,33.6z M29.7,21.2h7.9c0.2,0,0.4,0,0.6,0h0.1h0.1
			c0.1,0,0.3,0.1,0.4,0.1c0.2,0.1,0.5,0.1,0.7,0.2l0.2,0.1c0.1,0.1,0.2,0.1,0.4,0.2s0.4,0.2,0.6,0.4c0.1,0.1,0.2,0.1,0.3,0.2l0,0
			c0.1,0,0.1,0.1,0.2,0.1c0.2,0.2,0.4,0.3,0.5,0.5c0.1,0.1,0.1,0.2,0.2,0.3c0,0,0,0,0.1,0.1l0.1,0.1c0.1,0.2,0.3,0.4,0.4,0.6
			c0.1,0.1,0.1,0.2,0.2,0.3c0,0.1,0.1,0.1,0.1,0.2c0,0,0,0,0,0.1c0.2,0.5,0.3,0.9,0.4,1.4v0.2c0,0.1,0,0.3,0,0.4c0,0.3,0,0.6,0,0.9
			v0.1c0,0.1,0,0.2,0,0.2c0,0.1-0.1,0.3-0.1,0.4c0,0.1-0.1,0.3-0.1,0.4c0,0.1-0.1,0.3-0.1,0.3c-0.1,0.2-0.2,0.5-0.4,0.7
			c-0.1,0.3-0.3,0.5-0.4,0.6c-0.7,0.9-1.6,1.5-2.6,1.8c-0.9,0.3-1.8,0.3-2.8,0.3c0,0,0,0-0.1,0h-6.9C29.7,32.4,29.7,21.2,29.7,21.2z
			 M43.3,41.3c-0.1,0.6-0.3,1.1-0.5,1.5c-1,2-2.9,3.2-5.1,3.2c-2,0-4,0-5.9,0c-0.7,0-1.3,0-2,0V34.7h5.7c0.8,0,1.6,0,2.4,0
			c0.1,0,0.3,0,0.4,0h0.1l0,0c0.3,0,0.5,0.1,0.8,0.2c0.1,0,0.2,0.1,0.3,0.1l0.2,0.1h0.1c0,0,0.1,0,0.1,0.1c0.1,0.1,0.3,0.1,0.4,0.2
			c0.2,0.1,0.4,0.3,0.6,0.4c0,0,0,0,0.1,0l0.1,0.1c0.1,0.1,0.2,0.2,0.3,0.3c0.2,0.2,0.4,0.3,0.5,0.5l0.1,0.1l0,0
			c0.1,0.1,0.2,0.2,0.3,0.4s0.2,0.4,0.3,0.6c0.1,0.1,0.1,0.2,0.2,0.3c0,0,0.1,0.2,0.1,0.3c0.1,0.2,0.1,0.4,0.2,0.7
			c0,0.1,0.1,0.3,0.1,0.4c0,0,0,0,0,0.1s0,0.1,0,0.2c0,0.3,0,0.5,0,0.8C43.3,40.9,43.3,41,43.3,41.3z M61,14.4
			c-3.9-5.5-9.4-9.7-15.8-12.1c-6.5-2.4-13.8-2.6-20.5-0.7C18.3,3.4,12.4,7.2,8.2,12.4c-4.4,5.3-7,11.9-7.6,18.7
			C0.1,38,1.7,45,5.3,50.9c3.5,5.7,8.7,10.3,14.7,13c6.4,2.9,13.6,3.7,20.5,2.3c6.6-1.3,12.7-4.8,17.3-9.6
			c4.6-4.9,7.8-11.2,8.8-17.8c0.3-1.7,0.4-3.4,0.4-5.1C67.1,26.8,65,20,61,14.4z M64.9,36.2c0,0.4-0.1,0.8-0.1,1.2
			c0,0.1,0,0.2,0,0.3c0,0,0,0.2,0,0c0,0.2-0.1,0.5-0.1,0.7c-0.3,1.6-0.7,3.2-1.2,4.8c-0.2,0.8-0.5,1.5-0.8,2.2c0,0-0.1,0.3,0,0.1
			c0,0.1-0.1,0.2-0.1,0.3c-0.1,0.2-0.2,0.4-0.2,0.5c-0.2,0.4-0.4,0.8-0.6,1.2c-0.7,1.4-1.6,2.8-2.5,4.1c-0.2,0.3-0.4,0.6-0.6,0.9
			c0,0,0,0.1-0.1,0.1l0,0c-0.1,0.1-0.1,0.2-0.2,0.2c-0.1,0.2-0.3,0.4-0.4,0.5c-0.5,0.6-1,1.2-1.6,1.8s-1.1,1.1-1.7,1.7
			c-0.3,0.3-0.6,0.5-0.9,0.8c-0.1,0.1-0.3,0.2-0.4,0.3c-0.1,0.1-0.1,0.1-0.2,0.2c-0.1,0-0.1,0.1-0.2,0.1c0.1-0.1,0.1-0.1,0,0
			c-1.3,1-2.6,1.9-4,2.6c-0.7,0.4-1.4,0.8-2.2,1.1c-0.2,0.1-0.3,0.1-0.5,0.2c-0.1,0-0.2,0.1-0.3,0.1c0.2-0.1-0.1,0-0.1,0
			c-0.4,0.2-0.8,0.3-1.2,0.5c-1.5,0.6-3.1,1-4.8,1.3c-0.4,0.1-0.7,0.1-1.1,0.2c-0.2,0-0.4,0.1-0.6,0.1l0,0c0,0,0,0-0.1,0
			s-0.3,0-0.4,0.1c-0.9,0.1-1.7,0.2-2.6,0.2c-1.7,0.1-3.3,0-5-0.2c-0.1,0-0.2,0-0.3,0c-0.3,0,0.2,0-0.1,0c-0.2,0-0.4-0.1-0.6-0.1
			c-0.4-0.1-0.9-0.1-1.3-0.2c-0.8-0.2-1.6-0.4-2.4-0.6c-0.8-0.2-1.6-0.5-2.4-0.8c-0.3-0.1-0.7-0.3-1-0.4c0,0-0.3-0.1-0.1,0
			c-0.1,0-0.2-0.1-0.3-0.1c-0.2-0.1-0.4-0.2-0.6-0.3c-1.5-0.7-2.9-1.5-4.2-2.3c-0.6-0.4-1.3-0.9-1.9-1.4l-0.1-0.1
			c-0.1-0.1-0.2-0.1-0.2-0.2c-0.1-0.1-0.3-0.2-0.5-0.4c-0.3-0.3-0.6-0.5-1-0.8c-1.2-1-2.3-2.2-3.2-3.4c-0.5-0.7-0.9-1.1-1.4-1.8
			c-0.4-0.6-0.9-1.3-1.3-2S6.4,48.1,6,47.3c-0.2-0.3-0.3-0.7-0.5-1c-0.1-0.2-0.2-0.4-0.2-0.5s-0.1-0.2-0.1-0.3
			c0.1,0.2-0.1-0.2-0.1-0.2c-0.6-1.5-1.1-3.1-1.5-4.7c-0.2-0.8-0.3-1.6-0.5-2.4C3.1,38,3,37.8,3,37.6c0-0.1,0-0.1,0-0.1
			c0-0.1,0-0.2,0-0.3c-0.1-0.4-0.1-0.9-0.1-1.3c-0.1-1.7-0.1-3.4,0-5C3,30,3,29.3,3.2,28.5c0.1-0.8,0.3-1.6,0.5-2.4
			c0.4-1.6,0.9-3.1,1.5-4.7l0,0c0,0,0,0,0-0.1s0.1-0.2,0.1-0.3c0.1-0.2,0.2-0.4,0.2-0.5c0.2-0.4,0.3-0.7,0.5-1.1
			c0.4-0.7,0.8-1.5,1.2-2.2c0.4-0.7,0.8-1.3,1.3-2c0.2-0.3,0.5-0.6,0.7-0.9c-0.1,0.2,0.1-0.1,0.1-0.1C9.4,14.1,9.4,14,9.5,14
			c0.1-0.2,0.3-0.4,0.4-0.5c1-1.2,2.1-2.3,3.3-3.4c0.3-0.3,0.6-0.5,0.9-0.8c0.1-0.1,0.3-0.2,0.5-0.4c0.1-0.1,0.2-0.1,0.2-0.2
			c0.1-0.1,0.1-0.1,0,0c0.1,0,0.1-0.1,0.2-0.1c0.6-0.5,1.3-0.9,1.9-1.4c1.4-0.9,2.8-1.7,4.2-2.3c0.2-0.1,0.4-0.2,0.5-0.2
			c0,0,0.3-0.1,0.1-0.1c0.1,0,0.2-0.1,0.3-0.1c0.4-0.1,0.7-0.3,1.1-0.4c0.8-0.3,1.6-0.5,2.4-0.8c0.8-0.2,1.6-0.4,2.4-0.6
			c0.4-0.1,0.8-0.1,1.2-0.2c0.2,0,0.4-0.1,0.6-0.1c0.1,0,0.1,0,0.2,0c0.1,0,0.3,0,0.4-0.1c1.7-0.2,3.3-0.2,5-0.2
			c0.9,0,1.7,0.1,2.6,0.2c0.1,0,0.2,0,0.3,0s0.2,0,0.2,0c0.2,0,0.4,0.1,0.6,0.1c0.4,0.1,0.8,0.1,1.2,0.2c1.6,0.3,3.2,0.8,4.7,1.4
			c0.4,0.1,0.7,0.3,1.1,0.4l0,0c0,0,0,0,0.1,0s0.2,0.1,0.3,0.1c0.2,0.1,0.4,0.2,0.5,0.2c0.7,0.3,1.5,0.7,2.2,1.1
			c0.7,0.4,1.4,0.8,2,1.2c0.3,0.2,0.7,0.4,1,0.7c0.2,0.1,0.3,0.2,0.5,0.3c0.1,0.1,0.2,0.1,0.2,0.2c0,0,0.1,0.1,0.2,0.1
			c1.2,1,2.4,2,3.5,3.1c0.6,0.6,1.1,1.2,1.6,1.8c0.1,0.1,0.2,0.3,0.4,0.5c0.1,0.1,0.1,0.2,0.2,0.2c-0.1-0.2,0.1,0.1,0.1,0.1
			c0.2,0.3,0.5,0.6,0.7,1c0.9,1.3,1.8,2.7,2.5,4.1c0.2,0.4,0.3,0.7,0.5,1.1c0.1,0.2,0.2,0.4,0.2,0.5c0,0,0.1,0.3,0.1,0.1
			c0,0.1,0.1,0.2,0.1,0.3c0.3,0.8,0.6,1.6,0.8,2.3c0.5,1.6,0.9,3.2,1.1,4.8c0,0.1,0,0.2,0,0.3c0,0,0,0.3,0,0.2s0,0.2,0,0.2
			c0,0.1,0,0.2,0,0.3c0,0.4,0.1,0.8,0.1,1.2c0.1,0.8,0.1,1.7,0.1,2.5C65,34.5,65,35.4,64.9,36.2z"/>
	</g>
</g>
</svg>
