<?xml version="1.0" encoding="utf-8"?>
<!-- Generator: Adobe Illustrator 22.1.0, SVG Export Plug-In . SVG Version: 6.00 Build 0)  -->
<svg version="1.1" id="Layer_1" xmlns="http://www.w3.org/2000/svg" xmlns:xlink="http://www.w3.org/1999/xlink" x="0px" y="0px"
	 viewBox="0 0 44 44" style="enable-background:new 0 0 44 44;" xml:space="preserve">
<g>
	<path d="M31.7,19.2l-5.3-5.4c-0.2-0.2-0.4-0.2-0.6-0.1c-0.2,0.1-0.3,0.3-0.3,0.5v2.3H21c-0.3,0-0.5,0.2-0.5,0.5
		c0,0.3,0.2,0.5,0.5,0.5h5c0.3,0,0.5-0.2,0.5-0.5v-1.6l4,4.1l-4,4.1V22c0-0.3-0.2-0.5-0.5-0.5h-8.5c0-0.3,0-0.7,0-1.2v-1.5
		c0-0.2-0.1-0.4-0.3-0.5c-0.2-0.1-0.4,0-0.5,0.1l-5.8,5.7c-0.2,0.2-0.2,0.5,0,0.7l5.8,5.5c0.1,0.1,0.2,0.2,0.3,0.2
		c0.1,0,0.1,0,0.2,0c0.2-0.1,0.3-0.3,0.3-0.5v-2.5h3.5c0.3,0,0.5-0.2,0.5-0.5c0-0.3-0.2-0.5-0.5-0.5h-4c-0.3,0-0.5,0.2-0.5,0.5
		c0,0,0,0,0,0c0,0.1,0,0.9,0,1.7L12,24.5l4.5-4.4c0,0.8,0,1.8,0,1.9c0,0,0,0.1,0,0.1c0,0.2,0.2,0.4,0.5,0.4h8.5v2.4
		c0,0.2,0.1,0.4,0.3,0.5c0.2,0.1,0.4,0,0.6-0.1l5.3-5.4C31.9,19.7,31.9,19.4,31.7,19.2z"/>
</g>
</svg>
